# xmcd
#
# Track frame offsets:
#	150
#	23596
#	42715
#	72930
#	95190
#	115698
#	126990
#	153921
#	174196
#	201802
#	223738
#	246252
#	283882
#
# Disc length: 4182 seconds
#
# Revision: 0
# Processed by: cddbd v1.5.2PL0 Copyright (c) Steve Scherf et al.
# Submitted via: EasyCDDAExtractor 16.0.9.1
#
DISCID=c110540d
DTITLE=Sade - N-062- Sade  Lovers Live
DYEAR=1900
DGENRE=Pop
TTITLE0=Somebody Already Broke My Heart
TTITLE1=Smooth Operator
TTITLE2=Jezebel
TTITLE3=Kiss Of Life
TTITLE4=Slave Song
TTITLE5=The Sweetest Gift
TTITLE6=The Sweetest Taboo
TTITLE7=Paradise
TTITLE8=No Ordinary Love
TTITLE9=By Your Side
TTITLE10=Flow
TTITLE11=Is It A Crime
TTITLE12=Cherish The Day
EXTD=
EXTT0=
EXTT1=
EXTT2=
EXTT3=
EXTT4=
EXTT5=
EXTT6=
EXTT7=
EXTT8=
EXTT9=
EXTT10=
EXTT11=
EXTT12=
PLAYORDER=
